# xmcd
#
# Track frame offsets: 
#        150
#        25941
#        41542
#        65257
#        97002
#        115068
#        137854
#        155587
#        182030
#        201059
#
# Disc length: 2927 seconds
#
# Revision: 1
# Processed by: cddbd v1.5.2PL0 Copyright (c) Steve Scherf et al.
# Submitted via: ExactAudioCopyFreeDBPlugin 1.0
#
DISCID=860b6d0a
DTITLE=T.H.S. The Horne Section - The Unreleased Album
DYEAR=1982
DGENRE=Funk
TTITLE0=Anxiety
TTITLE1=Exotic Lady
TTITLE2=Where Are You My Love
TTITLE3=True Confusion
TTITLE4=Crazy Bout Your Love
TTITLE5=Invasion of the Freaks
TTITLE6=The Horn Section Theme
TTITLE7=Lady Shine (Original Version)
TTITLE8=Love Is
TTITLE9=What Midnight Have Been
EXTD=
EXTT0=
EXTT1=
EXTT2=
EXTT3=
EXTT4=
EXTT5=
EXTT6=
EXTT7=
EXTT8=
EXTT9=
PLAYORDER=
